<?xml version="1.0" standalone="no"?>
<!DOCTYPE svg PUBLIC "-//W3C//DTD SVG 20010904//EN"
 "http://www.w3.org/TR/2001/REC-SVG-20010904/DTD/svg10.dtd">
<svg version="1.0" xmlns="http://www.w3.org/2000/svg"
 width="152.000000pt" height="31.000000pt" viewBox="0 0 152.000000 31.000000"
 preserveAspectRatio="xMidYMid meet">

<g transform="translate(0.000000,31.000000) scale(0.100000,-0.100000)"
fill="#000000" stroke="none">
<path d="M0 155 l0 -155 760 0 760 0 0 155 0 155 -760 0 -760 0 0 -155z m289
109 c22 -28 27 -97 11 -159 -8 -32 -13 -26 -11 15 1 14 -3 39 -8 55 -9 29 -9
29 -10 -13 -1 -35 -4 -43 -18 -40 -9 2 -20 14 -24 28 -6 25 -6 24 -10 -5 -4
-28 -7 -30 -52 -33 -61 -4 -79 10 -75 57 3 36 3 36 58 42 l55 6 -57 1 -57 2
-11 -40 c-8 -31 -8 -46 4 -68 13 -25 13 -28 -4 -29 -19 -2 -30 37 -30 107 0
85 18 98 137 99 77 1 83 -1 102 -25z m260 -30 c12 -15 21 -31 21 -35 0 -16
-52 -10 -65 7 -17 24 -52 9 -60 -26 -12 -54 33 -93 65 -55 13 16 60 21 60 6 0
-4 -9 -20 -21 -35 -17 -21 -29 -26 -65 -26 -63 0 -94 32 -94 95 0 63 31 95 94
95 36 0 48 -5 65 -26z m901 1 c0 -9 7 -18 15 -21 8 -4 15 -12 15 -19 0 -7 -7
-15 -15 -19 -20 -7 -20 -62 0 -70 27 -10 17 -36 -13 -36 -39 0 -52 17 -52 67
0 24 -4 43 -10 43 -5 0 -10 7 -10 15 0 8 5 15 10 15 6 0 10 9 10 20 0 15 7 20
25 20 16 0 25 -6 25 -15z m-737 -42 c22 -20 22 -80 0 -105 -20 -22 -85 -24
-107 -3 -52 53 -7 144 64 129 14 -3 33 -13 43 -21z m155 11 c19 -13 22 -24 22
-75 0 -56 -1 -59 -25 -59 -23 0 -25 3 -25 51 0 43 -3 50 -17 47 -14 -2 -19
-15 -21 -51 -3 -42 -5 -47 -28 -47 -23 0 -24 2 -24 70 l0 71 35 -3 c19 -1 37
1 41 5 10 10 17 9 42 -9z m172 -4 c15 -15 20 -33 20 -75 0 -52 -1 -55 -24 -55
-23 0 -25 5 -28 47 -2 36 -7 49 -20 51 -15 3 -18 -4 -18 -47 0 -50 -1 -51 -30
-51 l-30 0 0 70 0 71 35 -3 c19 -1 37 1 41 5 13 12 34 7 54 -13z m163 -12 c9
-11 17 -29 17 -39 0 -16 -8 -19 -45 -19 -25 0 -45 -4 -45 -9 0 -16 21 -24 33
-12 13 13 57 15 57 2 0 -21 -34 -41 -70 -41 -60 0 -92 46 -70 100 21 51 86 61
123 18z m154 10 c19 -15 16 -48 -4 -48 -9 0 -24 7 -34 16 -16 14 -18 14 -29
-5 -8 -15 -8 -27 0 -42 11 -19 13 -19 29 -5 24 21 51 20 51 -2 0 -29 -21 -42
-66 -42 -47 0 -74 25 -74 68 0 67 76 103 127 60z"/>
<path d="M240 205 c-11 -13 -15 -13 -21 -3 -6 9 -9 9 -9 1 0 -21 14 -22 39 -2
13 10 19 19 13 19 -5 0 -15 -7 -22 -15z"/>
<path d="M647 174 c-10 -10 -9 -62 1 -68 16 -10 33 12 30 39 -3 28 -18 42 -31
29z"/>
<path d="M1135 170 c-3 -5 3 -10 15 -10 12 0 18 5 15 10 -3 6 -10 10 -15 10
-5 0 -12 -4 -15 -10z"/>
</g>
</svg>
